<svg width="19" height="18" viewBox="0 0 19 18" fill="none" xmlns="http://www.w3.org/2000/svg">
<path fill-rule="evenodd" clip-rule="evenodd" d="M17.148 9C17.148 13.1318 13.7985 16.4812 9.66675 16.4812C5.53497 16.4812 2.1855 13.1318 2.1855 9C2.1855 4.86822 5.53497 1.51875 9.66675 1.51875C13.7985 1.51875 17.148 4.86822 17.148 9ZM18.6667 9C18.6667 13.9706 14.6373 18 9.66675 18C4.69619 18 0.666748 13.9706 0.666748 9C0.666748 4.02944 4.69619 0 9.66675 0C14.6373 0 18.6667 4.02944 18.6667 9ZM13.5631 7.30207C13.868 7.01411 13.8817 6.5335 13.5938 6.22859C13.3058 5.92369 12.8252 5.90996 12.5203 6.19792L8.27699 10.2055L6.8131 8.82292C6.5082 8.53496 6.02758 8.54869 5.73962 8.85359C5.45166 9.1585 5.46539 9.63911 5.77029 9.92707L8.27699 12.2945L13.5631 7.30207Z" fill="#F4F499"/>
</svg>
